<?xml version="1.0" encoding="UTF-8" standalone="no"?>
<!DOCTYPE svg PUBLIC "-//W3C//DTD SVG 1.1//EN"
 "http://www.w3.org/Graphics/SVG/1.1/DTD/svg11.dtd">
<!-- Generated by graphviz version 2.43.0 (0)
 -->
<!-- Title: %3 Pages: 1 -->
<svg width="660pt" height="265pt"
 viewBox="0.00 0.00 660.00 265.00" xmlns="http://www.w3.org/2000/svg" xmlns:xlink="http://www.w3.org/1999/xlink">
<g id="graph0" class="graph" transform="scale(1 1) rotate(0) translate(4 261)">
<title>%3</title>
<polygon fill="white" stroke="transparent" points="-4,4 -4,-261 656,-261 656,4 -4,4"/>
<!-- a -->
<g id="node1" class="node">
<title>a</title>
<ellipse fill="white" stroke="black" cx="27" cy="-200.5" rx="27" ry="18"/>
<text text-anchor="middle" x="27" y="-196.8" font-family="Times,serif" font-size="14.00">a</text>
</g>
<!-- a_grp1_b_grp1 -->
<g id="node5" class="node">
<title>a_grp1_b_grp1</title>
<ellipse fill="white" stroke="black" cx="154" cy="-90" rx="79.09" ry="18"/>
<text text-anchor="middle" x="154" y="-86.3" font-family="Times,serif" font-size="14.00">a_grp1_b_grp1</text>
</g>
<!-- a&#45;&gt;a_grp1_b_grp1 -->
<g id="edge1" class="edge">
<title>a&#45;&gt;a_grp1_b_grp1</title>
<path fill="none" stroke="black" d="M34.9,-183.23C41.27,-171.32 51.11,-155.33 63,-144 76.72,-130.93 94.25,-119.75 110.25,-111.08"/>
<polygon fill="black" stroke="black" points="112.22,-114 119.46,-106.27 108.97,-107.8 112.22,-114"/>
</g>
<!-- b -->
<g id="node2" class="node">
<title>b</title>
<ellipse fill="white" stroke="black" cx="99" cy="-200.5" rx="27" ry="18"/>
<text text-anchor="middle" x="99" y="-196.8" font-family="Times,serif" font-size="14.00">b</text>
</g>
<!-- b&#45;&gt;a_grp1_b_grp1 -->
<g id="edge2" class="edge">
<title>b&#45;&gt;a_grp1_b_grp1</title>
<path fill="none" stroke="black" d="M107.35,-183.02C116.23,-165.52 130.38,-137.6 140.77,-117.1"/>
<polygon fill="black" stroke="black" points="143.99,-118.49 145.39,-107.99 137.74,-115.33 143.99,-118.49"/>
</g>
<!-- sigma_grp1 -->
<g id="node3" class="node">
<title>sigma_grp1</title>
<ellipse fill="white" stroke="black" cx="209" cy="-200.5" rx="64.99" ry="18"/>
<text text-anchor="middle" x="209" y="-196.8" font-family="Times,serif" font-size="14.00">sigma_grp1</text>
</g>
<!-- sigma_grp1&#45;&gt;a_grp1_b_grp1 -->
<g id="edge3" class="edge">
<title>sigma_grp1&#45;&gt;a_grp1_b_grp1</title>
<path fill="none" stroke="black" d="M200.41,-182.55C191.54,-165.05 177.59,-137.53 167.29,-117.23"/>
<polygon fill="black" stroke="black" points="170.36,-115.53 162.71,-108.19 164.11,-118.69 170.36,-115.53"/>
</g>
<!-- Rho -->
<g id="node4" class="node">
<title>Rho</title>
<ellipse fill="white" stroke="black" cx="321" cy="-200.5" rx="28.7" ry="18"/>
<text text-anchor="middle" x="321" y="-196.8" font-family="Times,serif" font-size="14.00">Rho</text>
</g>
<!-- Rho&#45;&gt;a_grp1_b_grp1 -->
<g id="edge4" class="edge">
<title>Rho&#45;&gt;a_grp1_b_grp1</title>
<path fill="none" stroke="black" d="M313.05,-183C306.46,-170.81 296.07,-154.58 283,-144 262.81,-127.67 236.91,-115.72 213.61,-107.35"/>
<polygon fill="black" stroke="black" points="214.75,-104.04 204.15,-104.09 212.47,-110.66 214.75,-104.04"/>
</g>
<!-- y -->
<g id="node7" class="node">
<title>y</title>
<ellipse fill="grey" stroke="black" cx="222" cy="-18" rx="27" ry="18"/>
<text text-anchor="middle" x="222" y="-14.3" font-family="Times,serif" font-size="14.00">y</text>
</g>
<!-- a_grp1_b_grp1&#45;&gt;y -->
<g id="edge5" class="edge">
<title>a_grp1_b_grp1&#45;&gt;y</title>
<path fill="none" stroke="black" d="M170.46,-72.05C179.61,-62.64 191.08,-50.82 200.89,-40.74"/>
<polygon fill="black" stroke="black" points="203.53,-43.04 207.99,-33.42 198.51,-38.16 203.53,-43.04"/>
</g>
<!-- sigma -->
<g id="node6" class="node">
<title>sigma</title>
<ellipse fill="white" stroke="black" cx="290" cy="-90" rx="38.19" ry="18"/>
<text text-anchor="middle" x="290" y="-86.3" font-family="Times,serif" font-size="14.00">sigma</text>
</g>
<!-- sigma&#45;&gt;y -->
<g id="edge6" class="edge">
<title>sigma&#45;&gt;y</title>
<path fill="none" stroke="black" d="M274.57,-73.12C265.36,-63.64 253.53,-51.46 243.43,-41.06"/>
<polygon fill="black" stroke="black" points="245.92,-38.6 236.44,-33.86 240.9,-43.48 245.92,-38.6"/>
</g>
<!-- distribution_description_node -->
<g id="node8" class="node">
<title>distribution_description_node</title>
<text text-anchor="start" x="376" y="-241.8" font-family="Times,serif" font-size="14.00">a ~ Normal</text>
<text text-anchor="start" x="376" y="-226.8" font-family="Times,serif" font-size="14.00">b ~ Normal</text>
<text text-anchor="start" x="376" y="-211.8" font-family="Times,serif" font-size="14.00">sigma_grp1 ~ Exponential</text>
<text text-anchor="start" x="376" y="-196.8" font-family="Times,serif" font-size="14.00">Rho ~ LKJ</text>
<text text-anchor="start" x="376" y="-181.8" font-family="Times,serif" font-size="14.00">a_grp1_b_grp1 ~ MultivariateNormal</text>
<text text-anchor="start" x="376" y="-166.8" font-family="Times,serif" font-size="14.00">sigma ~ Exponential</text>
<text text-anchor="start" x="376" y="-151.8" font-family="Times,serif" font-size="14.00">y ~ Normal</text>
</g>
</g>
</svg>
